<svg xmlns="http://www.w3.org/2000/svg" version="1.1" xmlns:xlink="http://www.w3.org/1999/xlink" width="512" height="512" x="0" y="0" viewBox="0 0 24 24" style="enable-background:new 0 0 512 512" xml:space="preserve" class=""><g><path fill="#f4c300" d="M12 2.001c-5.51 0-10 4.49-10 10 0 5.509 4.49 9.998 10 9.998S22 17.509 22 12c0-5.51-4.49-9.999-10-9.999zM12 17a1.001 1.001 0 1 1 0-1.997A1.001 1.001 0 0 1 12 17zm1.001-4a1.001 1.001 0 0 1-2.002 0V8.002a1.001 1.001 0 0 1 2.002 0z" opacity="1" data-original="#f4c300" class=""></path></g></svg>